<svg xmlns="http://www.w3.org/2000/svg" width="20" height="20" fill="none" viewBox="0 0 20 20"><g clip-path="url(#clip0_127_1771)"><g clip-path="url(#clip1_127_1771)"><path fill="#E1E3E6" d="M18.8399 9.1783L15.2316 5.19317C15.1191 5.07028 14.9745 5.00006 14.8137 5.00006H5.17828C5.02559 5.00006 4.8729 5.07028 4.76039 5.19317L1.16016 9.1783H18.8399Z"/><path fill="url(#paint0_linear_127_1771)" d="M18.8399 9.1783L15.2316 5.19317C15.1191 5.07028 14.9745 5.00006 14.8137 5.00006H5.17828C5.02559 5.00006 4.8729 5.07028 4.76039 5.19317L1.16016 9.1783H18.8399Z" opacity=".5"/><path fill="url(#paint1_linear_127_1771)" d="M1.16016 9.1783L4.76679 5.19317C4.87925 5.07028 5.02383 5.00006 5.18448 5.00006H14.8156C14.9682 5.00006 15.1208 5.07028 15.2333 5.19317L18.8399 9.1783H1.16016Z" opacity=".5"/><path fill="url(#paint2_linear_127_1771)" d="M18.4431 15H1.56476C1.25011 15 1 14.7309 1 14.3922V9.60785C1 9.26921 1.25011 9.00003 1.56476 9.00003H18.4351C18.7497 9.00003 18.9998 9.26921 18.9998 9.60785V14.3922C19.0079 14.7222 18.7497 15 18.4431 15Z"/><path fill="url(#paint3_linear_127_1771)" d="M18.4431 15H1.56476C1.25011 15 1 14.7309 1 14.3922V9.60785C1 9.26921 1.25011 9.00003 1.56476 9.00003H18.4351C18.7497 9.00003 18.9998 9.26921 18.9998 9.60785V14.3922C19.0079 14.7222 18.7497 15 18.4431 15Z" opacity=".6"/><path fill="url(#paint4_linear_127_1771)" d="M1.56477 15H18.4352C18.7499 15 19 14.7309 19 14.3922V9.60785C19 9.26921 18.7499 9.00003 18.4352 9.00003H1.56477C1.25011 9.00003 1 9.26921 1 9.60785V14.3922C1 14.7222 1.25818 15 1.56477 15Z" opacity=".6"/><path fill="url(#paint5_linear_127_1771)" d="M17.4667 14H2.53333C2.23619 14 2 13.752 2 13.44V9.00003H18V13.44C18 13.752 17.7638 14 17.4667 14Z"/><path fill="url(#paint6_linear_127_1771)" d="M18.4375 9.07717C18.7107 9.07717 18.9277 9.3086 18.9277 9.60003V14.4C18.9277 14.6915 18.7107 14.9229 18.4375 14.9229H1.5625C1.28929 14.9229 1.07232 14.6915 1.07232 14.4V9.60003C1.07232 9.3086 1.28929 9.07717 1.5625 9.07717H18.4375ZM18.4375 9.00003H1.5625C1.24911 9.00003 1 9.26574 1 9.60003V14.4C1 14.7343 1.24911 15 1.5625 15H18.4375C18.7509 15 19 14.7343 19 14.4V9.60003C19 9.26574 18.7509 9.00003 18.4375 9.00003Z"/><path stroke="#0F0" stroke-miterlimit="10" stroke-width=".523" d="M4.99972 12.0003C5.27602 11.7244 5.27627 11.2766 5.00028 11.0003C4.7243 10.724 4.27658 10.7238 4.00028 10.9998C3.72398 11.2758 3.72373 11.7235 3.99972 11.9998C4.2757 12.2761 4.72342 12.2763 4.99972 12.0003Z" opacity=".15"/><path stroke="#0F0" stroke-miterlimit="10" stroke-width=".261" d="M4.99972 12.0003C5.27602 11.7244 5.27627 11.2766 5.00028 11.0003C4.7243 10.724 4.27658 10.7238 4.00028 10.9998C3.72398 11.2758 3.72373 11.7235 3.99972 11.9998C4.2757 12.2761 4.72342 12.2763 4.99972 12.0003Z" opacity=".3"/><path fill="#00B300" d="M4.99972 12.0003C5.27602 11.7244 5.27627 11.2766 5.00028 11.0003C4.7243 10.724 4.27658 10.7238 4.00028 10.9998C3.72398 11.2758 3.72373 11.7235 3.99972 11.9998C4.2757 12.2761 4.72342 12.2763 4.99972 12.0003Z"/><path fill="url(#paint7_radial_127_1771)" d="M4.39104 11.9616C4.77592 11.899 5.03549 11.5409 4.97284 11.1561C4.95494 11.0755 4.92808 10.9949 4.89228 10.9233C4.74907 10.8249 4.57005 10.7801 4.38208 10.807C3.9972 10.8696 3.73763 11.2277 3.80028 11.6125C3.81818 11.6931 3.84503 11.7737 3.88084 11.8453C4.02405 11.9437 4.20307 11.9885 4.39104 11.9616Z"/><path stroke="#0F0" stroke-miterlimit="10" stroke-width=".089" d="M4.99972 12.0003C5.27602 11.7244 5.27627 11.2766 5.00028 11.0003C4.7243 10.724 4.27658 10.7238 4.00028 10.9998C3.72398 11.2758 3.72373 11.7235 3.99972 11.9998C4.2757 12.2761 4.72342 12.2763 4.99972 12.0003Z"/></g><mask id="path-14-inside-1_127_1771" fill="#fff"><path fill-rule="evenodd" d="M15.9999 16C17.3806 16 18.4999 14.8807 18.4999 13.5C18.4999 12.1193 17.3806 11 15.9999 11C14.6192 11 13.4999 12.1193 13.4999 13.5C13.4999 14.8807 14.6192 16 15.9999 16ZM16.0002 15.5C16.2073 15.5 16.3752 15.3321 16.3752 15.125C16.3752 14.9179 16.2073 14.75 16.0002 14.75C15.7931 14.75 15.6252 14.9179 15.6252 15.125C15.6252 15.3321 15.7931 15.5 16.0002 15.5Z" clip-rule="evenodd"/></mask><path fill="url(#paint8_linear_127_1771)" fill-rule="evenodd" d="M15.9999 16C17.3806 16 18.4999 14.8807 18.4999 13.5C18.4999 12.1193 17.3806 11 15.9999 11C14.6192 11 13.4999 12.1193 13.4999 13.5C13.4999 14.8807 14.6192 16 15.9999 16ZM16.0002 15.5C16.2073 15.5 16.3752 15.3321 16.3752 15.125C16.3752 14.9179 16.2073 14.75 16.0002 14.75C15.7931 14.75 15.6252 14.9179 15.6252 15.125C15.6252 15.3321 15.7931 15.5 16.0002 15.5Z" clip-rule="evenodd"/><path fill="#8A9299" d="M18.3746 13.5C18.3746 14.8115 17.3114 15.8747 15.9999 15.8747V16.1253C17.4498 16.1253 18.6252 14.9499 18.6252 13.5H18.3746ZM15.9999 11.1253C17.3114 11.1253 18.3746 12.1885 18.3746 13.5H18.6252C18.6252 12.0501 17.4498 10.8747 15.9999 10.8747V11.1253ZM13.6252 13.5C13.6252 12.1885 14.6884 11.1253 15.9999 11.1253V10.8747C14.55 10.8747 13.3746 12.0501 13.3746 13.5H13.6252ZM15.9999 15.8747C14.6884 15.8747 13.6252 14.8115 13.6252 13.5H13.3746C13.3746 14.9499 14.55 16.1253 15.9999 16.1253V15.8747ZM16.2499 15.125C16.2499 15.2629 16.1381 15.3747 16.0002 15.3747V15.6254C16.2766 15.6254 16.5006 15.4014 16.5006 15.125H16.2499ZM16.0002 14.8754C16.1381 14.8754 16.2499 14.9871 16.2499 15.125H16.5006C16.5006 14.8487 16.2766 14.6247 16.0002 14.6247V14.8754ZM15.7506 15.125C15.7506 14.9871 15.8624 14.8754 16.0002 14.8754V14.6247C15.7239 14.6247 15.4999 14.8487 15.4999 15.125H15.7506ZM16.0002 15.3747C15.8624 15.3747 15.7506 15.2629 15.7506 15.125H15.4999C15.4999 15.4014 15.7239 15.6254 16.0002 15.6254V15.3747Z" mask="url(#path-14-inside-1_127_1771)"/><path fill="#A1AAB3" d="M12.0044 6C12.0044 5.44772 12.4521 5 13.0044 5H19.0044C19.5567 5 20.0044 5.44772 20.0044 6V11C20.0044 11.5523 19.5567 12 19.0044 12H13.0044C12.4521 12 12.0044 11.5523 12.0044 11V6Z"/><mask id="mask0_127_1771" style="mask-type:alpha" width="9" height="7" x="12" y="5" maskUnits="userSpaceOnUse"><path fill="#FFC225" d="M12.0044 6C12.0044 5.44772 12.4521 5 13.0044 5H19.0044C19.5567 5 20.0044 5.44772 20.0044 6V11C20.0044 11.5523 19.5567 12 19.0044 12H13.0044C12.4521 12 12.0044 11.5523 12.0044 11V6Z"/></mask><g mask="url(#mask0_127_1771)"><g style="mix-blend-mode:overlay" opacity=".5"><path fill="url(#paint9_linear_127_1771)" fill-opacity=".5" d="M14.5097 5.01074H12.501C12.2243 5.01074 11.9999 5.23508 11.9999 5.51182V11.5248C11.9999 11.8015 12.2243 12.0258 12.501 12.0258H14.5097V5.01074Z"/></g></g><mask id="mask1_127_1771" style="mask-type:alpha" width="9" height="7" x="12" y="5" maskUnits="userSpaceOnUse"><path fill="#FFC225" d="M12.0044 6C12.0044 5.44772 12.4521 5 13.0044 5H19.0044C19.5567 5 20.0044 5.44772 20.0044 6V11C20.0044 11.5523 19.5567 12 19.0044 12H13.0044C12.4521 12 12.0044 11.5523 12.0044 11V6Z"/></mask><g mask="url(#mask1_127_1771)"><g style="mix-blend-mode:overlay" opacity=".5"><path fill="url(#paint10_linear_127_1771)" fill-opacity=".5" d="M20.0215 5.51182C20.0215 5.23508 19.7971 5.01074 19.5204 5.01074H12.5053C12.2286 5.01074 12.0042 5.23508 12.0042 5.51182V11.5248C12.0042 11.8015 12.2286 12.0258 12.5053 12.0258H19.5204C19.7971 12.0258 20.0215 11.8015 20.0215 11.5248V5.51182Z"/></g></g><path stroke="#B8C2CC" stroke-width="1.5" d="M14.0086 5.01077L14.0086 3.00646C14.0086 1.89951 14.906 1.00215 16.0129 1.00215V1.00215C17.1199 1.00215 18.0172 1.89951 18.0172 3.00646V3.04842"/><g style="mix-blend-mode:overlay" opacity=".25"><path fill="#fff" d="M11.9999 5.99997H19.9999V11H11.9999V5.99997Z"/></g><g style="mix-blend-mode:overlay"><rect width="8" height="1" x="12" y="11" fill="#0078D4"/></g><g style="mix-blend-mode:overlay" opacity=".25"><rect width="8" height="1" x="12" y="10" fill="#fff"/></g><g style="mix-blend-mode:overlay"><path fill="#0078D4" d="M11.9999 4.99997H19.9999V5.99997H11.9999V4.99997Z"/></g><g style="mix-blend-mode:overlay" opacity=".25"><rect width="8" height="1" x="12" y="6" fill="#fff"/></g><rect width="3.348" height="3.348" fill="#0883D9" transform="matrix(-1 0 0 1 7 0)"/><rect width="3.348" height="3.348" fill="#0883D9" transform="matrix(-1 0 0 1 7 3.65218)"/><rect width="3.348" height="3.348" fill="#0883D9" transform="matrix(-1 0 0 1 3.3479 0)"/><rect width="3.348" height="3.348" fill="#0883D9" transform="matrix(-1 0 0 1 3.3479 3.65218)"/></g><defs><linearGradient id="paint0_linear_127_1771" x1="13.989" x2="14.697" y1="4.955" y2="4.351" gradientUnits="userSpaceOnUse"><stop stop-color="#fff" stop-opacity="0"/><stop offset=".284" stop-color="#DCDCDC" stop-opacity=".142"/><stop offset=".909" stop-color="#838383" stop-opacity=".455"/><stop offset="1" stop-color="#767676" stop-opacity=".5"/></linearGradient><linearGradient id="paint1_linear_127_1771" x1="6.009" x2="5.301" y1="4.955" y2="4.351" gradientUnits="userSpaceOnUse"><stop stop-color="#fff" stop-opacity="0"/><stop offset=".284" stop-color="#DCDCDC" stop-opacity=".142"/><stop offset=".909" stop-color="#838383" stop-opacity=".455"/><stop offset="1" stop-color="#767676" stop-opacity=".5"/></linearGradient><linearGradient id="paint2_linear_127_1771" x1="10.004" x2="10.004" y1="14.997" y2="8.995" gradientUnits="userSpaceOnUse"><stop stop-color="#ABABAB"/><stop offset=".197" stop-color="#A7A7A7"/><stop offset=".398" stop-color="#9B9B9B"/><stop offset=".602" stop-color="#868686"/><stop offset=".805" stop-color="#6A6A6A"/><stop offset="1" stop-color="#474747"/></linearGradient><linearGradient id="paint3_linear_127_1771" x1="7.395" x2="6.704" y1="9.188" y2="8.546" gradientUnits="userSpaceOnUse"><stop stop-color="#fff" stop-opacity="0"/><stop offset=".451" stop-color="#BBB" stop-opacity=".225"/><stop offset=".819" stop-color="#898989" stop-opacity=".409"/><stop offset="1" stop-color="#767676" stop-opacity=".5"/></linearGradient><linearGradient id="paint4_linear_127_1771" x1="12.613" x2="13.303" y1="9.188" y2="8.546" gradientUnits="userSpaceOnUse"><stop stop-color="#fff" stop-opacity="0"/><stop offset=".451" stop-color="#BBB" stop-opacity=".225"/><stop offset=".819" stop-color="#898989" stop-opacity=".409"/><stop offset="1" stop-color="#767676" stop-opacity=".5"/></linearGradient><linearGradient id="paint5_linear_127_1771" x1="10" x2="10" y1="14" y2="8.999" gradientUnits="userSpaceOnUse"><stop stop-color="#666"/><stop offset=".109" stop-color="#5E5E5E"/><stop offset=".692" stop-color="#393939"/><stop offset="1" stop-color="#2B2B2B"/></linearGradient><linearGradient id="paint6_linear_127_1771" x1="10" x2="10" y1="15" y2="9" gradientUnits="userSpaceOnUse"><stop stop-color="#C9C9C9"/><stop offset=".37" stop-color="#CDCDCD"/><stop offset=".746" stop-color="#D9D9D9"/><stop offset="1" stop-color="#E6E6E6"/></linearGradient><radialGradient id="paint7_radial_127_1771" cx="0" cy="0" r="1" gradientTransform="translate(4.33063 11.589) rotate(-117.661) scale(0.94236 0.847944)" gradientUnits="userSpaceOnUse"><stop stop-color="#BDFFBD"/><stop offset="1" stop-color="#0F0"/></radialGradient><linearGradient id="paint8_linear_127_1771" x1="15.467" x2="16.363" y1="11" y2="16.012" gradientUnits="userSpaceOnUse"><stop stop-color="#CAD2D9"/><stop offset="1" stop-color="#A1AAB3"/></linearGradient><linearGradient id="paint9_linear_127_1771" x1="14.51" x2="12" y1="8.518" y2="8.518" gradientUnits="userSpaceOnUse"><stop stop-color="#fff" stop-opacity="0"/><stop offset="1"/></linearGradient><linearGradient id="paint10_linear_127_1771" x1="20.021" x2="12.004" y1="8.518" y2="8.518" gradientUnits="userSpaceOnUse"><stop/><stop offset="1" stop-color="#fff" stop-opacity="0"/></linearGradient><clipPath id="clip0_127_1771"><rect width="20" height="20" fill="#fff"/></clipPath><clipPath id="clip1_127_1771"><rect width="20" height="20" fill="#fff"/></clipPath></defs></svg>